<?xml version="1.0" encoding="utf-8" ?>
<svg baseProfile="full" height="300mm" version="1.1" viewBox="0,0,200,300" width="200mm" xmlns="http://www.w3.org/2000/svg" xmlns:ev="http://www.w3.org/2001/xml-events" xmlns:xlink="http://www.w3.org/1999/xlink"><defs /><rect fill="#222222" height="300" width="200" x="0" y="0" /><text fill="#FFFFFF" style="font-size:12px; font-family:Arial; font-weight:bold;" x="10" y="20">Over 10km Runs</text><text fill="#FFFFFF" style="font-size:4px; font-family:Arial" x="10" y="280">ATHLETE</text><text fill="#FFFFFF" style="font-size:9px; font-family:Arial" x="10" y="290">Sherry Sun</text><text fill="#FFFFFF" style="font-size:4px; font-family:Arial" x="120" y="280">STATISTICS</text><text fill="#FFFFFF" style="font-size:3px; font-family:Arial" x="120" y="285">Number: 3</text><text fill="#FFFFFF" style="font-size:3px; font-family:Arial" x="120" y="290">Weekly: 1.5</text><text fill="#FFFFFF" style="font-size:3px; font-family:Arial" x="141" y="285">Total: 46.8 km</text><text fill="#FFFFFF" style="font-size:3px; font-family:Arial" x="141" y="290">Avg: 15.6 km</text><text fill="#FFFFFF" style="font-size:3px; font-family:Arial" x="167" y="285">Min: 10.7 km</text><text fill="#FFFFFF" style="font-size:3px; font-family:Arial" x="167" y="290">Max: 19.6 km</text><polyline fill="none" points="95.5,78.3444870107196 91.96116504858946,78.5965264642291 86.6614605319337,78.38326233123371 75.90818910935195,78.57713882482494 59.496200928639155,80.49650634669524 44.1783452933887,80.57405617683253 39.30603630223777,81.05874195872457 38.690586745447945,79.77916904573794 38.297382861957885,79.72100645324099 36.50232165469788,76.89040726794337 36.074926129193045,76.50265095042414 36.946813001297414,77.76285633532098 37.1348670325242,77.70469317820971 36.28007598139811,78.20877333216777 32.553186998702586,74.27303807446151 31.01456310687354,75.45570527671953 29.47593921481166,76.01795453537488 28.193752638238948,75.78529985436762 28.039890249085147,73.43935058936768 26.022583368525375,73.36179809500754 25.629379484977107,73.76894836721476 25.4755170957651,74.52508246914658 24.22752216126537,74.87406651070341 23.73174335161457,76.15366964563145 22.842760658473708,75.16488609736552 22.808569016458932,75.45570527671953 22.39826931193238,75.49448113652761 22.56922752218088,75.3587655955198 22.46665259602014,75.84346354905574 22.39826931193238,75.28121381794335 22.552131701086182,76.2893846671941 22.517940059071407,75.61080867249984 22.46665259602014,76.19244537512714 22.586323343217373,75.6689724161115 23.11629379488295,75.45570527671953 23.714647530636285,76.15366964563145 23.783030814665835,75.9210151166626 23.50949767837301,76.11489390888892 23.868509919731878,76.2893846671941 23.6804558885633,75.1842740553111 22.894048121524975,74.6607985550072 21.782819755142555,74.68018655999913 21.543478260864504,73.01281151204603 19.902279442816507,72.78015346429311 19.491979738289956,72.15973072913766 18.038834951468743,72.14034248881217 17.76530181511771,71.11276316031581 17.423385394678917,72.06278950937849 17.286618826445192,70.60866578157584 16.876319122035056,70.02701343939407 16.363444491347764,69.9106827754149 15.765090755652636,70.33722822461277 15.69670747150667,72.21789543931664 15.936048965784721,72.74137709767092 16.619881806662306,72.93525885844429 17.252427184430417,72.29544836081914 17.184043900400866,70.41478184857988 16.431827775435522,69.9106827754149 15.71380329260137,70.41478184857988 15.69670747150667,72.31483658670913 16.312157028296497,72.95464702456957 16.842127479962073,72.87709434919816 17.20113972137915,72.45055411703652 17.21823554247385,70.55050062069495 16.534402701596264,69.9300712239201 15.765090755652636,70.35661663333303 15.69670747150667,72.41177768884518 16.038623891945463,72.81892982363934 16.58569016464753,72.91587069051457 17.20113972137915,72.25667190365493 17.235331363452133,70.58927739644423 16.910510764049832,70.10456717910711 16.397636133420747,69.9300712239201 15.730899113521446,70.51172383772791 15.71380329260137,72.41177768884518 16.431827775435522,72.93525885844429 16.944702406181023,72.78015346429311 17.35500211059116,72.12095424663858 17.406289573642425,72.50871874572476 16.80793583788909,73.2454692992469 15.679611650411971,73.26485743637022 15.337695230089594,74.31181415499304 14.773533136351034,73.61384359574004 14.5,70.58927739644423 15.577036724367645,69.9494596706063 18.58590122417081,68.94125804128998 14.517095820978284,70.49233544350136 14.859012241417076,73.86588879057672 15.218024482950568,74.29242611564405 17.21823554247385,74.5832465167914 17.474672857730184,72.39238947206468 17.013085690152366,70.22089773447078 16.346348670311272,69.9494596706063 15.850569860718679,70.20150931309036 15.662515829491895,72.23728367239528 16.175390460062772,72.95464702456957 17.030181511188857,72.66382434265688 17.20113972137915,70.86071462390828 16.927606585086323,70.1821208899346 16.431827775435522,69.96884811553173 15.816378218645696,70.31783981413173 15.747994934557937,72.35361303301761 16.41473195439903,72.89648252073675 17.491768678766675,72.27606013316836 17.166948079364374,76.38632391396095 17.35500211059116,76.32816037131124 17.21823554247385,72.66382434265688 17.166948079364374,74.21487393988355 17.543056141817942,75.88223933646805 17.35500211059116,76.17305751130334 17.30371464753989,73.63323169852083" stroke="#4dd2ff" stroke-linecap="round" stroke-linejoin="round" stroke-width="0.5"><title>2022-04-09 10.7km</title></polyline><polyline fill="none" points="145.3045378558454,61.514427836606046 145.4470874904655,61.27928416064242 145.26566068275133,60.60324413563649 144.6565849710605,60.22113327201805 142.45354516309453,60.36809909857402 141.68896075920202,60.07416730829573 140.56152273970656,60.20643668183766 138.9157224125811,59.927201207363396 138.5658278547926,59.48630208123359 138.3196057586465,57.208303589955904 138.69541843183106,56.826184485209524 139.75806116271997,56.414670565805864 145.48596466355957,54.38647910187137 146.41901681752643,53.41646525012038 147.0540106445551,53.196006722791935 147.11880593304522,52.505234670912614 146.67819797148695,50.46229532880534 146.76891137525672,49.60983797789959 146.44493493292248,48.53691095598333 146.93737912533106,47.05243822040211 146.76891137525672,45.33278398087714 146.98921535606496,42.27557448732841 146.87258383678272,41.86402251942491 147.3131917984574,37.66025148208428 143.8401643363759,37.55736057306058 141.94814191304613,38.48337633202027 139.03235393180512,39.468180762414704 138.19001518172445,40.82043948986393 137.84012062399415,42.65772892226232 136.53125579678454,42.922296833537985 136.47941956610885,47.14062511076918 136.5701329698786,43.03988242907508 135.97401631600223,40.46767746399564 135.84442573908018,40.23250234068837 135.1964728543535,40.20310542554944 134.69106960424688,37.55736057306058 134.15974823880242,36.45495375386963 133.62842687335797,36.116880781715736 134.08199389267247,34.92627018263738 134.0042395464843,34.676387801839155 133.4988362963777,34.5 132.82496529625496,36.05808540804719 133.70618121954612,36.45495375386963 134.21158446953632,36.29326677083736 134.78178300813306,38.08651310268033 135.92218008521013,43.26035518391291 135.68891704670386,47.1112294861523 136.85523223917698,51.96143326324818 136.72564166225493,52.78448331229447 136.868191296875,53.004942416009726 137.54206229699776,53.06373145818361 137.68461193161784,54.048444650368765 138.5269506816985,56.20891320264491 138.34552387398435,56.53224608111486 138.43623727792874,56.914365899414406 147.54645483690547,53.72510666958988 149.3218457410112,57.120122340420494 149.34776385646546,58.23708118437207 148.816442491021,59.19236864444974 148.98491024097893,59.398122107828385 149.03674647177104,59.207065329334 148.9719511832809,59.60387530231674 148.79052437556675,59.207065329334 149.23113233718323,58.67798380937893 149.1145008179592,58.54571315157227 148.7127700294368,59.42751543781196 148.49246604862856,61.382159562112065 148.80348343326477,63.14572741833399 147.84451316390187,64.71822542858717 148.12961243320024,66.68749985084287 148.05185808701208,67.67212782504794 146.56156645220472,69.55319101513305 147.1058468753472,71.0815383096051 147.74084070237586,71.40484064398333 148.53134322172264,72.7274341902521 150.19010260660434,77.90013781926245 151.16203193360707,79.47248848699383 153.26139928010525,81.58852441930503 153.22252210701117,81.8530269118055 152.75599602999864,82.13222350532305 153.81863876094576,84.27761239427491 154.2333286071662,85.62948627416336 154.07781991478987,86.15847724257037 154.27220578026026,86.68746643433406 154.51842787640635,86.80501934688073 154.71281374181854,88.34789319089032 155.94392422284,90.56666622568446 156.3974912420963,92.37398805160774 157.17503470374504,103.33502419899742 156.22902349208016,115.5 154.946076780383,115.27962835491053 156.16422820359003,115.39715993725986 156.7473857998266,108.28634144147509 155.86616987665184,108.02188332575315 154.86832243419485,108.21288089826703 155.01087206881493,108.41857033286942 155.56811154965544,108.4920307801367 155.60698872274952,108.71241191655281 156.41045029979432,108.8740245540539 156.6566723959986,108.71241191655281 156.81218108831672,108.02188332575315 157.17503470374504,103.83457068052667 156.91585354984272,101.35151518764906 156.8510582613526,96.9583211447898 156.52708181901835,94.0784351653565 156.5529999344144,96.16488842490071 155.3478075688472,96.38528680344461 154.58322316489648,96.28243426515837 155.82729270355776,95.92979648119945 155.6458658958436,95.29798514430877 155.81433364580153,94.65147789753973 156.46228653058643,94.4751572788955 156.5011637036805,92.5209238739335 155.8532108188956,90.66952249580936 154.66097751108464,88.28911732137203 154.45363258797443,86.87848987257166 154.038942741754,86.0262296670262 154.1944514340721,85.65887470789312 153.85751593398163,84.43925009929808 152.7819141453365,82.1616125915898 153.11884964542696,81.9118051831174 153.10589058778714,81.48566221892543 150.15122543351026,77.87074793768988 149.14041893335525,74.12349310389254 148.012980913918,71.7428378292243 146.84666572144488,70.56719231860188 146.5097302213544,69.49440813061665 148.00002185627818,67.8778702060954 148.10369431780418,67.46638517518295 148.12961243320024,66.77567574134446 147.72788164461963,65.01214854801947 147.94818562542787,64.32142834691331 148.82940154871903,63.08694214140996 148.4665479331743,61.60260662456858 148.58317945245653,59.3246387589752 146.911461009935,59.23645869498432 146.6134026829386,60.13295371022832 145.69330958666978,60.32400936499471 145.46004654822173,60.9853540717304 145.58963712508557,62.41090987919597 146.22463095211424,62.322731544001726 145.99136791360797,62.11698190316383 145.73218675970566,62.11698190316383 146.09504037519218,62.60196276930219 145.58963712508557,62.42560626361228 145.42116937506944,61.45564195056795 145.13607010582928,61.39685604254191 145.03239764424507,60.89717493802891 144.77321649034275,60.69142343397834 144.3974038172746,61.1911051915813 143.995673028694,60.66203034002683 144.4492400480085,61.05883664540306 144.28077229799237,61.77896405229694" stroke="#4dd2ff" stroke-linecap="round" stroke-linejoin="round" stroke-width="0.5"><title>2022-03-27 19.6km</title></polyline><polyline fill="none" points="51.34458965144586,229.01209504029248 50.57848568621557,222.30969067974365 50.95059332647361,221.49049633712275 49.48405145003926,218.03992276181816 49.39649671118241,216.10361005924642 47.9737322042929,215.5822926912224 48.148841682006605,213.89421038958244 47.55784719460644,212.95086561096832 46.55096769728698,208.63129676051904 46.26641479600221,205.82602192394552 46.59474506683182,199.71886104540317 46.13508268771693,197.0872769189882 43.66166131407954,187.82687277023797 42.87366866401862,187.52894556336105 42.085676014074124,187.92618176498218 41.516570211271755,187.55377284329734 42.50156102376059,184.87241320122848 43.136332880705595,184.6986204389541 43.44277446682099,185.0462058498233 43.22388761956245,185.93999481885112 43.42088578210678,185.0462058498233 42.78611392527819,184.5 42.43589496961795,184.79793060274096 41.40712678770069,187.50411828100914 41.56034758070018,187.87652727222303 42.63289313216228,188.27376295434078 43.595995259820484,187.80204551570932 43.968102900194936,189.8626997450483 44.53720870288089,190.8557804149459 46.57285638211761,199.44577333831694 46.15697137231473,205.67706844999339 46.7260771751171,209.62430730721098 48.192619051551446,214.21693283476634 47.9737322042929,215.80571454550955 49.22138723335229,216.42632982239593 49.46216276532505,218.0647471921111 50.928704641759396,221.41602399898693 51.21325754316058,222.35933874058537 62.7923717610538,218.486762151937 63.29581150971353,217.49378470948432 65.30957050411962,216.47597898196545 65.50656866654754,214.0183344532852 64.63102127774619,211.4117169434321 65.22201576514635,210.5428387602733 66.51344816375058,210.14563635922968 67.03877659712452,208.01066328509478 66.22889526246581,205.35433563680272 66.38211605534889,196.36731068452355 66.66666895686649,194.28188024065457 67.36710686795413,193.36329259190825 67.43277292209677,191.20335777266882 68.28643162630033,190.53302960426663 68.3739863652736,188.59651650881278 68.59287321241572,189.81304561407887 68.50531847344246,188.9440968214767 68.35209768044297,189.76339147394174 66.73233501100913,189.61442899770918 61.36960725416429,190.1109702603717 61.04127698333468,192.44470176807954 61.544716731878,194.0336136216647 61.085054352646694,192.94123774275067 61.04127698333468,190.13579729915364 59.180738781928085,190.40889457272715 52.02313887781929,192.94123774275067 50.57848568621557,194.82806598616298 49.834270405583084,197.88172015556484 52.59224468062166,197.50932518407353 50.0093798834132,197.98102539326646 49.812381720985286,198.4030722391617 47.62351324874908,198.62650853334344 47.995620889007114,202.2511155117827 47.51406982517801,202.69798144267406 47.31707166263368,206.22323077963665 48.21450773626566,209.45053072925657 48.323951159836724,212.0075174847152 49.374608026468195,214.09280886373017 48.280173790524714,211.436541992618 48.192619051551446,208.5071701813431 47.44840377103537,206.8686939041654 47.31707166263368,205.4536380825739 47.57973587932065,201.72977097614785 50.1407119918149,201.35738139605382 49.5278288195841,200.73673093653633 48.12695299729239,200.96016526891617 47.57973587932065,200.58777461061254 47.6672906181775,198.6513347766886 49.09005512506701,198.60168228772818 49.89993645984214,198.2044620421657 50.57848568621557,194.97702554016723 51.80425203067716,193.21433213341516 57.75797427503858,191.1040500025556 57.3420892652357,190.4833755985892 58.064415861153975,190.8806073841115 61.04127698333468,190.13579729915364 65.44090261228848,189.81304561407887 65.85678762220778,190.33441352591035 65.00312891800422,197.18658245337429 65.24390444986057,198.0803305937443 64.87179680960253,199.94229623352294 64.95935154845938,206.79421746978187 64.41213443048764,208.6561220693984 64.98124023329001,210.22011185460724 64.60913259303197,211.88339248209377 64.93746286374517,212.47919196629664 65.11257234157529,212.33024222039967 64.80613075545989,212.70261642860714 65.37523655826226,213.89421038958244 65.59412340540439,216.0291362121352 63.05503597774077,217.14624172844924 62.923703869455494,218.08957162004663 62.52970754436683,218.3626401744841 51.01625938073266,222.3345147113141 50.622263055644,222.9302907739766 51.01625938073266,226.75315540950396 51.563476498704404,230.55114181883982 52.30769177922048,237.30298371383105 50.994370695902035,264.60647844325285 51.4102557055885,265.40071997523773 54.45278288202826,265.5 56.31332108343486,265.1773397840443 56.13821160560474,265.4751799972437 51.475921759731136,265.42553998486255 50.86303858761676,264.2093567881093 51.475921759731136,253.26345778923132 51.51969912927598,250.2600824854744 51.27892359730322,250.2600824854744 51.67291992227547,248.4481123869773 52.045027562533505,236.9554666246986 52.30769177922048,236.16114014413324 51.322700966731645,229.260328994249 51.4102557055885,227.8702158673259 51.91369545413181,227.49786290284828 54.47467156662606,228.06880390184233 56.2476550291758,227.7709217944648" stroke="#4dd2ff" stroke-linecap="round" stroke-linejoin="round" stroke-width="0.5"><title>2022-03-25 16.6km</title></polyline></svg>