<?xml version="1.0" encoding="utf-8" ?>
<svg baseProfile="full" height="200mm" version="1.1" viewBox="0,0,200,200" width="200mm" xmlns="http://www.w3.org/2000/svg" xmlns:ev="http://www.w3.org/2001/xml-events" xmlns:xlink="http://www.w3.org/1999/xlink"><defs /><rect fill="#1a1a1a" height="200" width="200" x="0" y="0" /><text alignment-baseline="middle" fill="#e1ed5e" style="dominant-baseline: central; font-size:9.0px; font-family:Arial;" text-anchor="middle" x="100.0" y="100.0">2022</text><line stroke="#e1ed5e" stroke-width="0.3" x1="100.0" x2="100.0" y1="15.0" y2="10.0" /><path d="M 100.0 14.0 a86.0,86.0 0 0,1 42.46469731375804,11.215312516191453" fill="none" id="id37" stroke="none" /><text fill="#e1ed5e" style="font-size:6.75px; font-family:Arial;" text-anchor="middle"><textPath startOffset="22.20632615414155" xlink:href="#id37">January</textPath></text><line stroke="#e1ed5e" stroke-width="0.3" x1="143.23703022742887" x2="145.7803849466894" y1="26.81831364943548" y2="22.513508569990506" /><path d="M 143.74570117128098 25.957352633546492 a86.0,86.0 0 0,1 28.547481713284135,27.462654790039103" fill="none" id="id38" stroke="none" /><text fill="#e1ed5e" style="font-size:6.75px; font-family:Arial;" text-anchor="middle"><textPath startOffset="19.985693538727396" xlink:href="#id38">February</textPath></text><path d="M 110.68208982089419 81.91981866633111 l 15.297848830917973 -25.892675077216154 a51.074155042293526,51.074155042293526 0 0,0 0.7530712303321808,0.45371699010363115 l -15.741282127467793 25.62551147765391" fill="#b1ff20" stroke="none" /><path d="M 111.60114157652 82.49532879139004 l 4.477107712466234 -6.755395402713637 a29.10431123020514,29.10431123020514 0 0,0 0.41521500081430596,0.2803550220296447 l -4.592727407687081 6.677328468385322" fill="#ff1602" stroke="none" /><line stroke="#e1ed5e" stroke-width="0.3" x1="172.23445277983987" x2="176.4835382374775" y1="55.19839476539836" y2="52.563006222186495" /><path d="M 173.08426987136738 54.67131705675599 a86.0,86.0 0 0,1 12.851231095245387,41.99856678651699" fill="none" id="id39" stroke="none" /><text fill="#e1ed5e" style="font-size:6.75px; font-family:Arial;" text-anchor="middle"><textPath startOffset="22.20632615414155" xlink:href="#id39">March</textPath></text><path d="M 120.73433829027371 96.67025291283417 l 6.670945672849613 -1.0712935041304021 a27.75641812960854,27.75641812960854 0 0,0 0.07169629060789687,0.47238897506374267 l -6.68839785689681 0.9563054166745774" fill="#ff0000" stroke="none" /><path d="M 120.78858239683441 97.02765380044208 l 57.05507918615033 -8.157720644302021 a78.63532308444498,78.63532308444498 0 0,0 0.1800524261561813,1.3415997108083675 l -57.18704761136435 7.174402591428989" fill="#46fff4" stroke="none" /><path d="M 120.83666639777658 97.38593545837742 l 54.9806834288616 -6.89760311375429 a76.41166374527631,76.41166374527631 0 0,0 0.15249456447490445,1.3064803015598712 l -55.091268346340094 5.950179073869566" fill="#43ffdc" stroke="none" /><path d="M 120.87857604477298 97.74499172005257 l 62.63572813431897 -6.7650248398422885 a84.0,84.0 0 0,0 0.1428914972710853,1.43889787718226 l -62.74289675727228 5.6858514319555935" fill="#4dd2ff" stroke="none" /><path d="M 120.96714384426684 98.82574320788733 l 11.328316476890159 -0.6344379885497591 a32.34606829531253,32.34606829531253 0 0,0 0.02634878649360452,0.5561812383738701 l -11.33755887161726 0.4393456435528892" fill="#ff4806" stroke="none" /><line stroke="#e1ed5e" stroke-width="0.3" x1="184.98032266829074" x2="189.97916517819016" y1="98.17113171792111" y2="98.06355123074" /><path d="M 185.9800911702706 98.14961562048488 a86.0,86.0 0 0,1 -9.607161424134198,41.387399972396054" fill="none" id="id40" stroke="none" /><text fill="#e1ed5e" style="font-size:6.75px; font-family:Arial;" text-anchor="middle"><textPath startOffset="21.466115282336823" xlink:href="#id40">April</textPath></text><path d="M 120.92983693683757 101.71520430193887 l 25.848560125006895 2.118294646018218 a46.935212217050506,46.935212217050506 0 0,0 -0.07291810701916279,0.8046452347886043 l -25.808267421710656 -2.562921269355393" fill="#e6ff1a" stroke="none" /><path d="M 120.8583938346157 102.4346265915055 l 34.13789893757304 3.98463262274836 a55.36965872699671,55.36965872699671 0 0,0 -0.11864528934437793,0.9457196922161772 l -34.064252138981814 -4.571670069251932" fill="#7dff26" stroke="none" /><path d="M 120.81339534386255 102.79330883721812 l 23.719373801252488 3.183312254329316 a44.932032308855554,44.932032308855554 0 0,0 -0.10947571775406302,0.7656729149926906 l -23.661064032481825 -3.591130641302416" fill="#fffd18" stroke="none" /><path d="M 120.41448212921028 104.9243191809786 l 31.06236480968067 7.4927689995133075 a52.953279876246754,52.953279876246754 0 0,0 -0.2213666116238812,0.8842495745332306 l -30.928786883761727 -8.026346413443935" fill="#9aff22" stroke="none" /><path d="M 120.32669344350535 105.2749913415812 l 15.984870702860501 4.1482425456082055 a37.51435762009416,37.51435762009416 0 0,0 -0.16758543110207338,0.6236477324414206 l -15.911097195416652 -4.422781211225174" fill="#ff960d" stroke="none" /><path d="M 120.23288151984713 105.62410040840565 l 26.456110091072485 7.353960898850262 a48.4591788306345,48.4591788306345 0 0,0 -0.2303134694166944,0.8017514013281224 l -26.32560398476969 -7.808269775682966" fill="#d2ff1c" stroke="none" /><path d="M 119.79798401119884 107.00284435728193 l 15.062579069887292 5.327860492563646 a36.97708939903721,36.97708939903721 0 0,0 -0.21741778282961505,0.5982403611249585 l -14.96863702605245 -5.5863486506947355" fill="#ff8e0d" stroke="none" /><path d="M 119.67450827220406 107.3425965602758 l 11.136537508730429 4.156195462354286 a32.886817421187814,32.886817421187814 0 0,0 -0.202497791358262,0.5286578344406766 l -11.06334543777866 -4.347276863628107" fill="#ff5107" stroke="none" /><path d="M 119.54520255179757 107.68017299344265 l 17.253293956299334 6.779580919662082 a39.53749901655348,39.53749901655348 0 0,0 -0.2543529883779663,0.6312832578173582 l -17.13403835366398 -7.075563545322253" fill="#ffb310" stroke="none" /><line stroke="#e1ed5e" stroke-width="0.3" x1="174.80103733775053" x2="179.2010983576182" y1="140.37084112569926" y2="142.7455964860345" /><path d="M 175.68104954172406 140.8457921977663 a86.0,86.0 0 0,1 -30.038265399797805,32.042727171017184" fill="none" id="id41" stroke="none" /><text fill="#e1ed5e" style="font-size:6.75px; font-family:Arial;" text-anchor="middle"><textPath startOffset="22.206326154141568" xlink:href="#id41">May</textPath></text><path d="M 118.48025628344425 109.97397251340804 l 20.158166426888133 10.879556797196932 a43.906689629834204,43.906689629834204 0 0,0 -0.3646839263968501,0.6620072560172797 l -19.967906091039776 -11.224934571612016" fill="#fff016" stroke="none" /><path d="M 117.94076556474637 110.91462005526583 l 14.18560650661146 8.630094669840233 a37.604516432911325,37.604516432911325 0 0,0 -0.34119000422175094,0.5501069240678674 l -14.034951862721748 -8.872997925273374" fill="#ff970d" stroke="none" /><path d="M 115.07121518719521 114.62390073753431 l 8.51105791679107 8.258449275696494 a32.859177513732725,32.859177513732725 0 0,0 -0.3973760086941316,0.40253979882783486 l -8.367641283041403 -8.403729568504993" fill="#ff5007" stroke="none" /><path d="M 114.0293411484842 115.62618273729858 l 11.581237082709624 12.899431631395757 a38.335523896870896,38.335523896870896 0 0,0 -0.4948160432180526,0.43661762686509165 l -11.357478686584983 -13.096872400033138" fill="#ffa20e" stroke="none" /><path d="M 113.48314897796784 116.09983520530334 l 10.744550378642531 12.829754438958702 a37.734633602298196,37.734633602298196 0 0,0 -0.5015649250867941,0.4127537869801824 l -10.522115325011047 -13.012803344796062" fill="#ff990e" stroke="none" /><path d="M 111.7513745106137 117.40417183066458 l 5.079127753394589 7.522355116002534 a30.07652825845613,30.07652825845613 0 0,0 -0.43156280658739404,0.286016295805551 l -4.948890248067231 -7.608669432899403" fill="#ff2503" stroke="none" /><path d="M 111.45004920935366 117.60387380957326 l 4.227207256668775 6.499118191781995 a28.75292322041079,28.75292322041079 0 0,0 -0.4172161404574545,0.2662870807384172 l -4.11470931416439 -6.570919701344221" fill="#ff1001" stroke="none" /><line stroke="#e1ed5e" stroke-width="0.3" x1="143.8653032363475" x2="146.44561519142675" y1="172.8068346515853" y2="177.08958963109032" /><path d="M 144.38136562736335 173.6633856474863 a86.0,86.0 0 0,1 -40.68145358897372,12.25698825130547" fill="none" id="id42" stroke="none" /><text fill="#e1ed5e" style="font-size:6.75px; font-family:Arial;" text-anchor="middle"><textPath startOffset="21.466115282336833" xlink:href="#id42">June</textPath></text><line stroke="#e1ed5e" stroke-width="0.3" x1="102.19456741930631" x2="102.32365962044197" y1="184.97166512339345" y2="189.96999836594603" /><path d="M 102.22038585953345 185.97133177190398 a86.0,86.0 0 0,1 -42.740103519485714,-10.115201625700543" fill="none" id="id43" stroke="none" /><text fill="#e1ed5e" style="font-size:6.75px; font-family:Arial;" text-anchor="middle"><textPath startOffset="22.20632615414155" xlink:href="#id43">July</textPath></text><line stroke="#e1ed5e" stroke-width="0.3" x1="58.666819895761336" x2="56.23545636021788" y1="174.27360380694188" y2="178.64263932499728" /><path d="M 58.180547188652646 175.14741091055294 a86.0,86.0 0 0,1 -31.652253787137756,-30.449443065178592" fill="none" id="id44" stroke="none" /><text fill="#e1ed5e" style="font-size:6.75px; font-family:Arial;" text-anchor="middle"><textPath startOffset="22.20632615414155" xlink:href="#id44">August</textPath></text><line stroke="#e1ed5e" stroke-width="0.3" x1="26.63291911575756" x2="22.317208475507996" y1="142.92168965132927" y2="145.44649492493687" /><path d="M 25.769776987707644 143.4266507060508 a86.0,86.0 0 0,1 -11.730757126820373,-40.83630448921669" fill="none" id="id45" stroke="none" /><text fill="#e1ed5e" style="font-size:6.75px; font-family:Arial;" text-anchor="middle"><textPath startOffset="21.46611528233685" xlink:href="#id45">September</textPath></text><line stroke="#e1ed5e" stroke-width="0.3" x1="15.007084014347285" x2="10.007500721073583" y1="101.09737516637583" y2="101.16192664675087" /><path d="M 14.007167355692545 101.11028546245083 a86.0,86.0 0 0,1 10.666146001902534,-42.60595125391555" fill="none" id="id46" stroke="none" /><text fill="#e1ed5e" style="font-size:6.75px; font-family:Arial;" text-anchor="middle"><textPath startOffset="22.20632615414155" xlink:href="#id46">October</textPath></text><line stroke="#e1ed5e" stroke-width="0.3" x1="26.266209847984243" x2="21.928928074336255" y1="57.711370442889674" y2="55.22380399835377" /><path d="M 25.398753493254645 57.213857153982495 a86.0,86.0 0 0,1 29.58750427330803,-30.492523968695096" fill="none" id="id47" stroke="none" /><text fill="#e1ed5e" style="font-size:6.75px; font-family:Arial;" text-anchor="middle"><textPath startOffset="21.46611528233685" xlink:href="#id47">November</textPath></text><line stroke="#e1ed5e" stroke-width="0.3" x1="56.762969772571076" x2="54.21961505331055" y1="26.818313649435495" y2="22.513508569990535" /><path d="M 56.25429882871897 25.957352633546506 a86.0,86.0 0 0,1 42.265352541879196,-11.944610805530505" fill="none" id="id48" stroke="none" /><text fill="#e1ed5e" style="font-size:6.75px; font-family:Arial;" text-anchor="middle"><textPath startOffset="22.20632615414155" xlink:href="#id48">December</textPath></text></svg>