<?xml version="1.0" encoding="utf-8" ?>
<svg baseProfile="full" height="200mm" version="1.1" viewBox="0,0,200,200" width="200mm" xmlns="http://www.w3.org/2000/svg" xmlns:ev="http://www.w3.org/2001/xml-events" xmlns:xlink="http://www.w3.org/1999/xlink"><defs /><rect fill="#1a1a1a" height="200" width="200" x="0" y="0" /><text alignment-baseline="middle" fill="#e1ed5e" style="dominant-baseline: central; font-size:9.0px; font-family:Arial;" text-anchor="middle" x="100.0" y="100.0">2021</text><line stroke="#e1ed5e" stroke-width="0.3" x1="100.0" x2="100.0" y1="15.0" y2="10.0" /><path d="M 100.0 14.0 a86.0,86.0 0 0,1 42.46469731375804,11.215312516191453" fill="none" id="id25" stroke="none" /><text fill="#e1ed5e" style="font-size:6.75px; font-family:Arial;" text-anchor="middle"><textPath startOffset="22.20632615414155" xlink:href="#id25">January</textPath></text><line stroke="#e1ed5e" stroke-width="0.3" x1="143.23703022742887" x2="145.7803849466894" y1="26.81831364943548" y2="22.513508569990506" /><path d="M 143.74570117128098 25.957352633546492 a86.0,86.0 0 0,1 28.547481713284135,27.462654790039103" fill="none" id="id26" stroke="none" /><text fill="#e1ed5e" style="font-size:6.75px; font-family:Arial;" text-anchor="middle"><textPath startOffset="19.985693538727396" xlink:href="#id26">February</textPath></text><path d="M 116.60985879189232 87.15038557335679 l 49.829576375676965 -38.54884327992963 a84.0,84.0 0 0,0 0.874896239103546,1.1512608964758657 l -50.48574855500462 37.68539760757273" fill="#4dd2ff" stroke="none" /><line stroke="#e1ed5e" stroke-width="0.3" x1="172.23445277983987" x2="176.4835382374775" y1="55.19839476539836" y2="52.563006222186495" /><path d="M 173.08426987136738 54.67131705675599 a86.0,86.0 0 0,1 12.851231095245387,41.99856678651699" fill="none" id="id27" stroke="none" /><text fill="#e1ed5e" style="font-size:6.75px; font-family:Arial;" text-anchor="middle"><textPath startOffset="22.20632615414155" xlink:href="#id27">March</textPath></text><path d="M 118.3937258080291 89.86733742301442 l 38.39314252463504 -21.149861780718133 a64.83320711812473,64.83320711812473 0 0,0 0.530063645898752,0.9821274331343275 l -38.75151426975225 20.485853364251344" fill="#32ff47" stroke="none" /><path d="M 118.73160827565052 90.50648371742162 l 36.49762864310451 -18.497655230662733 a61.91747970736256,61.91747970736256 0 0,0 0.4736391970546827,0.9548277194066768 l -36.8106278531126 17.866667922757106" fill="#3dff2e" stroke="none" /><path d="M 119.47837535516314 92.15188598940014 l 35.6114386481854 -14.34835429015174 a59.39335663144326,59.39335663144326 0 0,0 0.3739135638501562,0.9515692352966023 l -35.853145761917254 13.733236049959352" fill="#5aff2a" stroke="none" /><path d="M 120.45610955862082 95.25157060432595 l 34.8689555458398 -8.094049996937963 a56.79605713218544,56.79605713218544 0 0,0 0.2128651663074262,0.9542328018915475 l -35.00311509914927 7.492639025496451" fill="#79ff26" stroke="none" /><path d="M 120.73433829027371 96.67025291283417 l 38.504809144497194 -6.183523886600638 a59.99815758353611,59.99815758353611 0 0,0 0.15497840254319098,1.021114036914073 l -38.605543440479686 5.519810737294483" fill="#53ff2b" stroke="none" /><line stroke="#e1ed5e" stroke-width="0.3" x1="184.98032266829074" x2="189.97916517819016" y1="98.17113171792111" y2="98.06355123074" /><path d="M 185.9800911702706 98.14961562048488 a86.0,86.0 0 0,1 -9.607161424134198,41.387399972396054" fill="none" id="id28" stroke="none" /><text fill="#e1ed5e" style="font-size:6.75px; font-family:Arial;" text-anchor="middle"><textPath startOffset="21.466115282336823" xlink:href="#id28">April</textPath></text><path d="M 120.9904718944345 100.63252640178507 l 15.659189494816248 0.47187365943177806 a36.66629759659343,36.66629759659343 0 0,0 -0.024440474409302974,0.6307000456973908 l -15.648746887555742 -0.741350952143175" fill="#ff6e0a" stroke="none" /><path d="M 120.8583938346157 102.4346265915055 l 38.46870697603247 4.490131775594968 a59.72986831594005,59.72986831594005 0 0,0 -0.12798828224294323,1.020192538270455 l -38.385717184542685 -5.1516420681528174" fill="#56ff2a" stroke="none" /><path d="M 120.02730092923936 106.31721596034902 l 15.506847169624253 4.891328231435523 a37.259993880986606,37.259993880986606 0 0,0 -0.19820143064730597,0.6100012801478006 l -15.4203534879607 -5.157528411561119" fill="#ff770b" stroke="none" /><line stroke="#e1ed5e" stroke-width="0.3" x1="174.80103733775053" x2="179.2010983576182" y1="140.37084112569926" y2="142.7455964860345" /><path d="M 175.68104954172406 140.8457921977663 a86.0,86.0 0 0,1 -30.038265399797805,32.042727171017184" fill="none" id="id29" stroke="none" /><text fill="#e1ed5e" style="font-size:6.75px; font-family:Arial;" text-anchor="middle"><textPath startOffset="22.206326154141568" xlink:href="#id29">May</textPath></text><path d="M 118.30583269289576 110.29060199501025 l 35.39758357297894 19.89870934830537 a61.60723527321657,61.60723527321657 0 0,0 -0.5276161088789862,0.9199431587246808 l -35.049815467947575 -20.505072352888366" fill="#41ff2d" stroke="none" /><path d="M 117.94076556474637 110.91462005526583 l 38.48951079525801 23.415856192267935 a66.05268873746888,66.05268873746888 0 0,0 -0.5993034690235011,0.9662680144446724 l -38.080742686566545 -24.07492053807788" fill="#33ff57" stroke="none" /><line stroke="#e1ed5e" stroke-width="0.3" x1="143.8653032363475" x2="146.44561519142675" y1="172.8068346515853" y2="177.08958963109032" /><path d="M 144.38136562736335 173.6633856474863 a86.0,86.0 0 0,1 -40.68145358897372,12.25698825130547" fill="none" id="id30" stroke="none" /><text fill="#e1ed5e" style="font-size:6.75px; font-family:Arial;" text-anchor="middle"><textPath startOffset="21.466115282336833" xlink:href="#id30">June</textPath></text><path d="M 110.8373102113329 117.98757091392108 l 11.039499486945427 18.323161006129684 a42.39179230870615,42.39179230870615 0 0,0 -0.6282708462457749,0.37119349013103503 l -10.72246076967127 -18.510473068554468" fill="#ffc412" stroke="none" /><path d="M 104.13013068566511 120.58985236759428 l 4.73234863679541 23.592076667644786 a45.06202828342218,45.06202828342218 0 0,0 -0.7618323520809858,0.14600698345260069 l -4.32554867014272 -23.670040849445854" fill="#ffeb16" stroke="none" /><path d="M 103.41894727170886 120.7198165907248 l 2.8161257455958255 17.06654250798062 a38.297324573231464,38.297324573231464 0 0,0 -0.6513538503477395,0.10172807565581578 l -2.521936031639569 -17.112488890983542" fill="#ff870c" stroke="none" /><path d="M 102.70371172650421 120.8252237178851 l 1.1772948148212306 9.068062863439325 a30.144166838826397,30.144166838826397 0 0,0 -0.5151388015913694,0.0623761348569529 l -1.021028590178481 -9.086984527021627" fill="#ff0500" stroke="none" /><line stroke="#e1ed5e" stroke-width="0.3" x1="102.19456741930631" x2="102.32365962044197" y1="184.97166512339345" y2="189.96999836594603" /><path d="M 102.22038585953345 185.97133177190398 a86.0,86.0 0 0,1 -42.740103519485714,-10.115201625700543" fill="none" id="id31" stroke="none" /><text fill="#e1ed5e" style="font-size:6.75px; font-family:Arial;" text-anchor="middle"><textPath startOffset="22.20632615414155" xlink:href="#id31">July</textPath></text><path d="M 99.09653310690486 120.98055641714683 l -1.0592474562035967 24.598135454044392 a45.62093160278444,45.62093160278444 0 0,0 -0.7842714589855865,-0.04053787616172991 l 1.4825069836026723 -24.57625777112046" fill="#fff316" stroke="none" /><path d="M 91.07499286063937 119.00905698771935 l -8.716350974199853 18.564647602668217 a41.509044709997816,41.509044709997816 0 0,0 -0.6441558016380883,-0.3092339300698867 l 9.034619443838183 -18.411859396098766" fill="#ffb811" stroke="none" /><line stroke="#e1ed5e" stroke-width="0.3" x1="58.666819895761336" x2="56.23545636021788" y1="174.27360380694188" y2="178.64263932499728" /><path d="M 58.180547188652646 175.14741091055294 a86.0,86.0 0 0,1 -31.652253787137756,-30.449443065178592" fill="none" id="id32" stroke="none" /><text fill="#e1ed5e" style="font-size:6.75px; font-family:Arial;" text-anchor="middle"><textPath startOffset="22.20632615414155" xlink:href="#id32">August</textPath></text><path d="M 89.7882731507175 118.34994917583269 l -14.935225812258999 26.837834445580917 a51.71368307109353,51.71368307109353 0 0,0 -0.7741076209735305,-0.4395585101566605 l 15.394982200153736 -26.576772769629624" fill="#b9ff1f" stroke="none" /><path d="M 84.43433777217949 114.09645910891817 l -6.5607214431684575 5.941471695520414 a29.851223178946547,29.851223178946547 0 0,0 -0.3416417770586762,-0.3838381582450382 l 6.662022069875472 -5.827659367534512" fill="#ff0000" stroke="none" /><line stroke="#e1ed5e" stroke-width="0.3" x1="26.63291911575756" x2="22.317208475507996" y1="142.92168965132927" y2="145.44649492493687" /><path d="M 25.769776987707644 143.4266507060508 a86.0,86.0 0 0,1 -11.730757126820373,-40.83630448921669" fill="none" id="id33" stroke="none" /><text fill="#e1ed5e" style="font-size:6.75px; font-family:Arial;" text-anchor="middle"><textPath startOffset="21.46611528233685" xlink:href="#id33">September</textPath></text><line stroke="#e1ed5e" stroke-width="0.3" x1="15.007084014347285" x2="10.007500721073583" y1="101.09737516637583" y2="101.16192664675087" /><path d="M 14.007167355692545 101.11028546245083 a86.0,86.0 0 0,1 10.666146001902534,-42.60595125391555" fill="none" id="id34" stroke="none" /><text fill="#e1ed5e" style="font-size:6.75px; font-family:Arial;" text-anchor="middle"><textPath startOffset="22.20632615414155" xlink:href="#id34">October</textPath></text><line stroke="#e1ed5e" stroke-width="0.3" x1="26.266209847984243" x2="21.928928074336255" y1="57.711370442889674" y2="55.22380399835377" /><path d="M 25.398753493254645 57.213857153982495 a86.0,86.0 0 0,1 29.58750427330803,-30.492523968695096" fill="none" id="id35" stroke="none" /><text fill="#e1ed5e" style="font-size:6.75px; font-family:Arial;" text-anchor="middle"><textPath startOffset="21.46611528233685" xlink:href="#id35">November</textPath></text><path d="M 84.5562425177563 85.77008943001954 l -12.609787548153339 -11.618684722482858 a38.14644501609647,38.14644501609647 0 0,0 0.4490975123160136,-0.47906591372021523 l 12.407922713866869 11.834020053081122" fill="#ff850c" stroke="none" /><line stroke="#e1ed5e" stroke-width="0.3" x1="56.762969772571076" x2="54.21961505331055" y1="26.818313649435495" y2="22.513508569990535" /><path d="M 56.25429882871897 25.957352633546506 a86.0,86.0 0 0,1 42.265352541879196,-11.944610805530505" fill="none" id="id36" stroke="none" /><text fill="#e1ed5e" style="font-size:6.75px; font-family:Arial;" text-anchor="middle"><textPath startOffset="22.20632615414155" xlink:href="#id36">December</textPath></text></svg>